<?xml version="1.0" encoding="UTF-8"?><svg xmlns="http://www.w3.org/2000/svg" width="689.5" height="567" viewBox="0 0 689.5 567"><defs><style>.cls-1{fill:none;stroke:#be1204;stroke-miterlimit:10;stroke-width:4px;}</style></defs><g id="Layer_1"><path class="cls-1" d="m165,38c-46.33,2.93-78.05,4.77-100,6-20.45,1.14-36.53,1.98-44,13-10.08,14.87,1.91,38.83,6,48,18.87,42.27,2.64,67-11,218-13.5,149.52-1.95,173.57,14,186,19.38,15.1,46.11,13.71,66,10"/></g><g id="Layer_3"><path class="cls-1" d="m631.49,232.05c4.49-.41,5.25,14.76,17.79,19.29,12.3,4.45,26.59-4.42,27.74-2,1,2.09-11.25,6.36-13.02,15.66-1.95,10.23,10.09,19.73,8,22-2.17,2.35-14.06-9.11-20.83-5.44-6.35,3.45-3.09,17.46-7.01,18.45-4.25,1.07-7.25-15.58-21.35-22.59-8.92-4.43-17.28-2.53-17.81-5.42-.52-2.83,7.58-4.13,14.21-11.09,11.1-11.66,7.35-28.41,12.29-28.86Z"/><path class="cls-1" d="m135.28,473.07c-5.05-.46-5.91,16.66-20.02,21.77-13.85,5.02-29.92-4.99-31.23-2.26-1.13,2.36,12.67,7.17,14.66,17.67,2.2,11.55-11.36,22.27-9,24.83,2.45,2.66,15.82-10.29,23.44-6.14,7.15,3.89,3.48,19.7,7.89,20.82,4.78,1.21,8.16-17.58,24.03-25.49,10.04-5,19.45-2.85,20.05-6.12.59-3.2-8.53-4.66-15.99-12.52-12.49-13.16-8.27-32.06-13.83-32.57Z"/><path class="cls-1" d="m211.89,34.92c.33,4.05-12.13,4.72-15.87,16.02-3.67,11.1,3.6,24,1.61,25.04-1.72.9-5.21-10.16-12.85-11.78-8.41-1.78-16.23,9.08-18.09,7.19-1.93-1.97,7.5-12.67,4.49-18.79-2.83-5.74-14.34-2.82-15.15-6.36-.88-3.84,12.81-6.52,18.58-19.23,3.65-8.04,2.09-15.59,4.47-16.07,2.33-.47,3.39,6.85,9.1,12.84,9.57,10.03,23.34,6.67,23.7,11.13Z"/><path class="cls-1" d="m210,38c37.1-.25,89.57-.42,153,0,87.98.59,71.81,1.48,91,1,104.41-2.62,137.52-17.91,158,4,11.16,11.94,10.09,25.86,9,77-1.22,57.43-1.26,105.54-1,141"/><path class="cls-1" d="m618.96,275c2.54,35.91,6.3,64.69,9.18,84,6.21,41.58,12.66,67.76,6.12,105-3.16,18.03-5.24,29.02-14.28,39-21.38,23.6-61.53,19.22-88.75,17-58.29-4.75-117.08,3.33-175.46,0-45.13-2.58-110.21-4.93-190.77-3"/></g></svg>