<?xml version="1.0" encoding="UTF-8"?><svg id="Layer_6" xmlns="http://www.w3.org/2000/svg" width="621" height="550" xmlns:xlink="http://www.w3.org/1999/xlink" viewBox="0 0 621 550"><defs><style>.cls-1{fill:url(#linear-gradient);}.cls-1,.cls-2,.cls-3{stroke-width:0px;}.cls-2{fill:#fff;}.cls-3{fill:#ffb95c;}</style><linearGradient id="linear-gradient" x1="135.47" y1="285.54" x2="452.09" y2="285.54" gradientTransform="translate(565.36 -21.19) rotate(87.34)" gradientUnits="userSpaceOnUse"><stop offset="0" stop-color="#ff9e00"/><stop offset=".55" stop-color="#fbb03c"/></linearGradient></defs><polygon class="cls-3" points="235.6 177 352 177 293.8 6 235.6 177"/><polygon class="cls-3" points="352 409 243.6 409 297.8 550 352 409"/><polygon class="cls-3" points="163.95 312.38 204.52 182.16 45.71 204.11 163.95 312.38"/><polygon class="cls-3" points="380.88 173.44 431.39 300.14 540.91 183.06 380.88 173.44"/><polygon class="cls-3" points="182.8 384.41 156.54 254.23 32.87 346.91 182.8 384.41"/><polygon class="cls-3" points="411 246.85 411 381.68 562.06 314.27 411 246.85"/><polygon class="cls-3" points="297.1 160.01 419.94 215.21 419.94 50.93 297.1 160.01"/><polygon class="cls-3" points="417.92 352.31 308.23 430.43 450.01 513.42 417.92 352.31"/><polygon class="cls-3" points="159.34 218.51 266.4 142.06 127.53 60.78 159.34 218.51"/><polygon class="cls-3" points="272.92 437.43 159.39 370.98 141.97 530.94 272.92 437.43"/><ellipse class="cls-1" cx="293.78" cy="285.54" rx="158.36" ry="158.31" transform="translate(-5.1 565.74) rotate(-87.34)"/><path class="cls-2" d="m387.67,385.59c-7.71,16.47-23.14,21.47-25.37,16.24-1.62-3.81,3.58-13.45,7.57-20.83,6.2-11.49,18.03-28.52,21.81-24.36,2.89,3.19.83,18.61-4.01,28.95Z"/></svg>