<?xml version="1.0" encoding="UTF-8"?><svg id="Layer_1" xmlns="http://www.w3.org/2000/svg" width="1005" height="860" viewBox="0 0 1005 860"><defs><style>.cls-1{fill:#ffa8ac;opacity:.8;}.cls-1,.cls-2,.cls-3,.cls-4,.cls-5,.cls-6,.cls-7,.cls-8,.cls-9,.cls-10,.cls-11{stroke-width:0px;}.cls-3{fill:#754c24;}.cls-4{fill:#55d3ff;}.cls-5{fill:#aff;}.cls-6{fill:#a67c52;}.cls-7{fill:#abe9ff;}.cls-8{fill:#8c6239;}.cls-9{fill:#fff;}.cls-10{fill:#eedeb1;}.cls-11{fill:#00a99d;}</style></defs><path class="cls-4" d="m464,374.5c0,11.84-7.62,25-19.5,27.5-7.31,1.54-16.92-.82-20.5-7-2.82-4.87.57-7.88,1-20.5.5-14.38-3.91-18.92,0-23.5,4.84-5.68,14.03-5.48,19.5-4,11.56,3.13,19.5,15.53,19.5,27.5Z"/><path class="cls-4" d="m177.96,382.71c-1.12-11.79,5.22-25.61,16.82-29.22,7.13-2.22,16.93-.79,21.07,5.03,3.26,4.58.18,7.9.94,20.5.87,14.37,5.68,18.46,2.22,23.39-4.29,6.11-13.45,6.78-19.04,5.82-11.8-2.03-20.88-13.62-22.01-25.54Z"/><path class="cls-8" d="m450.3,241.19c-4.38,31.83-74.35,51.6-129.06,53.63-50.31,1.86-119.48-10.11-125.98-39.96-2.44-11.2,6.22-14.49,8.19-34.7,3.64-37.29-23.31-52.31-18.44-71.5,9.19-36.19,118.13-34.17,146.47-33.65,29.65.55,117.04,2.17,124.96,33.65,4.04,16.07-15.32,29.25-12.29,63.09,1.6,17.82,7.47,19.81,6.15,29.44Z"/><path class="cls-6" d="m448,401c4.28,4.15,4.81,12.12,1.03,16.8-2.35,2.91-5.63,3.66-8.03,4.2-7.35,1.67-16.56-.47-18-5-.46-1.46.34-1.71,1.03-6.2,1.01-6.53-.41-7.9,1-10,2.3-3.43,8.32-3.16,12-3,4.27.19,8.04.35,10.97,3.2Z"/><path class="cls-6" d="m201.07,425.93c-4.9-3.4-6.72-11.17-3.77-16.4,1.84-3.25,4.96-4.53,7.24-5.46,6.97-2.85,16.41-2.25,18.58,1.99.7,1.36-.06,1.74,0,6.29.08,6.61,1.7,7.72.65,10.03-1.71,3.76-7.69,4.48-11.35,4.92-4.24.51-7.99.97-11.34-1.36Z"/><path class="cls-4" d="m435,574c.83,26.51,1.51,47.91-13,64-3.67,4.07-16.28,16.63-77.5,18-57.18,1.28-102.92,2.3-117.5-24-.92-1.66-1.71-3.86-1.71-3.86s-5.31-13.03-5.29-29.14c.07-55.58.13-102.18,27-118,28.88-17.01,59.32,18.87,98,4,5.94-2.28,24.45-10.52,47.5-6.67,3.34.56,5.26.78,7.5,1.67,32.45,12.82,34.46,76.74,35,94Z"/><path class="cls-6" d="m402,488c-3.67,7.71-13.14,12.28-78,14-68.57,1.82-79.25-2.72-84-11-5.27-9.17-3.72-23.73,4-31,13.71-12.91,35.1,8.27,76,6,38.5-2.14,54.63-22.85,71-12,10.53,6.98,15.95,23.58,11,34Z"/><path class="cls-6" d="m433,318c1.1,2.07,4.35,6.28,5,13,.6,6.15-1.27,11.43-3,15-4.35,2.37-9.27,6.06-12.1,11.91-2.48,5.12-1.93,9-2.9,9.09-5.47.46-2.51-58.51-33-75-3.19-1.72-13.13-2.82-33-5-27.26-2.99-40.89-4.49-53-3-20.94,2.58-22.82,8.12-41,8-4.07-.03-11.01-.35-19,3,0,0-2.08.87-5,2.69,0,0-5.5,3.4-10,8.31-9.21,10.05-9.09,46.57-16,48-4.91,1.02-17.47-14.86-15-28,1.06-5.62,5.41-13.64,4-26h0s-.89-17.89-1-20c-2-39.26-9.56-52.38-3-66,10.89-22.61,53.03-30.72,63-19,9.74,11.45-12.24,40.59-2,49,3.9,3.2,11.57,2.66,16-1,13.23-10.94-9.09-44.23,4-57,7.06-6.89,22.53-5.95,31,1,16.91,13.87,5.82,51.56,9,52,2.23.31,9.03-18.09,13-38,1.7-8.51,1.79-11.85,5-15,8.86-8.69,31.51-6.16,37,4,5.53,10.25-11.74,24.27-5,41,1.45,3.6,4.83,9.37,8,9,8.03-.95,1.08-39.83,19-50,9.55-5.42,24.88-1.97,28,5,4.58,10.21-18.24,25.34-16,48,.27,2.72.81,4.62,2,5,5.92,1.9,14.81-37.62,34-41,12.5-2.2,31.17,10.61,34,26,5.59,30.43-51.52,67.04-42,85Z"/><path class="cls-3" d="m216,339.5c1.57,6.47,2.51,7.42,2,10.5-1.66,10.1-14.69,18.32-27,19-2.03.11-15.29.84-22-8-2-2.64-2.95-5.51-3-22-.09-27.92,2.58-30.79,4-32,2.66-2.27,9.11-2.51,22-3,10.27-.39,15.46-.56,18,1,6.62,4.07.92,13.61,6,34.5Z"/><path class="cls-3" d="m467,339.5c1.57,6.47,2.51,7.42,2,10.5-1.66,10.1-14.69,18.32-27,19-2.03.11-15.29.84-22-8-2-2.64-2.95-5.51-3-22-.09-27.92,2.58-30.79,4-32,2.66-2.27,9.11-2.51,22-3,10.27-.39,15.46-.56,18,1,6.62,4.07.92,13.61,6,34.5Z"/><path class="cls-4" d="m428.5,389c-2.87,21-6.84,50.11-30,68.5-16.21,12.87-34.47,13.58-71,15-41.92,1.63-67.75,2.63-87-15-12.96-11.87-16.34-26.12-22-50-7.42-31.29-17.27-72.82,5-101,17.32-21.92,45.29-24.63,80-28,37.13-3.6,83.47-8.1,110,22,23.45,26.6,18.18,65.2,15,88.5Z"/><path class="cls-7" d="m303.54,345.81c.74,3.68,5.23,26-6.49,34.21-4.32,3.03-10.01,3.26-21.4,3.73-9.28.38-13.91.57-18.81-1.24-11.3-4.19-17.92-16.6-19.46-26.12-3.72-23.07,18.95-50.81,38.26-48.51,17.01,2.02,25.62,26.64,27.89,37.94Z"/><path class="cls-7" d="m396.3,344.51c.74,3.68,5.23,26-6.49,34.21-4.32,3.03-10.01,3.26-21.4,3.73-9.28.38-13.91.57-18.81-1.24-11.3-4.19-17.92-16.6-19.46-26.12-3.72-23.07,18.95-50.81,38.26-48.51,17.01,2.02,25.62,26.64,27.89,37.94Z"/><path class="cls-11" d="m298,346.5c.57,2.96,4.03,20.9-5,27.5-3.33,2.43-7.72,2.62-16.5,3-7.15.31-10.73.46-14.5-1-8.71-3.37-13.82-13.35-15-21-2.87-18.55,14.61-40.85,29.5-39,13.11,1.63,19.75,21.41,21.5,30.5Z"/><path class="cls-11" d="m342,355c.88,13.73-1.34,41.44-17,47-8.4,2.98-18.79-1.07-25-7-23.91-22.83-2.77-89.65,15-91,11.93-.91,25.49,27.43,27,51Z"/><path class="cls-11" d="m383.49,346.14c.57,2.96,4.03,20.9-5,27.5-3.33,2.43-7.72,2.62-16.5,3-7.15.31-10.73.46-14.5-1-8.71-3.37-13.82-13.35-15-21-2.87-18.55,14.61-40.85,29.5-39,13.11,1.63,19.75,21.41,21.5,30.5Z"/><ellipse class="cls-2" cx="278.5" cy="353.5" rx="2.5" ry="7.5"/><path class="cls-2" d="m354,353c0,4.14-1.12,7-2.5,7s-2.5-3.36-2.5-7.5,1.12-7.5,2.5-7.5,2.5,3.86,2.5,8Z"/><path class="cls-2" d="m306.16,399.98c-1.28-.69-6.63-3.57-6.16-4.98.35-1.06,4-1.29,6.84.02,3.75,1.73,5.96,6.07,5.16,6.98-.67.76-3.56-.8-5.84-2.02Z"/><path class="cls-2" d="m329,402c-3.51,1.53-8.09.51-8.45-1.05-.39-1.71,4.31-4.07,6.45-4.95.86-.35,5.98-2.45,7-1,.92,1.3-1.43,5.44-5,7Z"/><path class="cls-1" d="m379.87,385.03c4.27,7.77-4.08,23.12-16.98,24.81-6.91.91-14.92-2.13-19.11-8.49-3.9-5.93-4.18-14.29.71-19.59,6.76-7.33,19.22-4.28,23.35-3.27,4.26,1.04,9.76,2.39,12.03,6.53Z"/><path class="cls-1" d="m291.87,386.03c4.27,7.77-4.08,23.12-16.98,24.81-6.91.91-14.92-2.13-19.11-8.49-3.9-5.93-4.18-14.29.71-19.59,6.76-7.33,19.22-4.28,23.35-3.27,4.26,1.04,9.76,2.39,12.03,6.53Z"/><path class="cls-2" d="m356,419c.48.95-5.9,5.31-11,8-8.45,4.47-17.42,6.52-23,6-.46-.04-2.11-.22-4.7-.44-1.07-.09-3.36-.29-7.3-.56-7.67-.53-8.21-.44-10-1-1.91-.6-4.02-1.55-5-2-1.12-.51-2.08-.99-4-2-4.72-2.49-7.08-3.73-7-4,.26-.89,9.26,1.61,21,3,5.66.67,12.6,1.49,20,1,18.21-1.21,30.33-9.31,31-8Z"/><path class="cls-9" d="m307,445c-2.79,11.77-3.32,14.05-4,14-.97-.07-.6-4.93-2-15-1.45-10.39-3.42-16.54-1-18,.92-.56,2.37-.36,5,0,2.18.3,3.27.45,4,1,2.38,1.8.53,7.32-2,18Z"/><path class="cls-9" d="m337.47,441.54c-.98,9.61-.37,14.39-1.29,14.5-.93.11-1.41-4.69-4.79-14.36-2.8-8.02-5.31-12.85-3.38-14.69.31-.3.5-.29,4-1,5.37-1.09,5.57-1.23,6-1,2.16,1.17.46,6.83-.53,16.54Z"/><path class="cls-4" d="m482,522c.75,4.87-4.13,9.3-6,11-11.16,10.14-31.22,9.25-45,2-21.32-11.21-30.94-39.37-25-45,3.89-3.69,11.51,5.05,43,16,19.39,6.74,31.89,8.78,33,16Z"/><path class="cls-4" d="m188,539c-4.53,15.3,10.4,34.22,20,36,1.96.36,3.81.04,4,0,5.69-1.06,10.93-6.79,11-12,.09-6.58-8.15-7.36-9-14-.91-7.12,8.14-9.68,14-22,4.63-9.73,5.63-22.1,2-24-2.37-1.24-5.8,2.45-19,14-19.69,17.22-21.62,17.35-23,22Z"/><path class="cls-4" d="m185,589c1.11,4.03,9.97,4.75,13,5,4.27.35,18.5,1.5,24-8,3.62-6.25,2.85-16.06-2-19-4.52-2.75-11.08,1.39-20,7-6.14,3.87-16.31,10.27-15,15Z"/><path class="cls-4" d="m365.19,676.25c-.91-18.62-4.11-24.69.69-30.06.27-.3,4.19-4.55,9.82-4.43,5.64.12,9.41,4.57,10.25,5.56,3.7,4.36,3.78,9,3.22,27.89-.6,19.86-.94,22.85-3.91,25.19-4.58,3.61-12.67,3.53-17.03-.26-4.12-3.58-2.28-8.21-3.04-23.89Z"/><path class="cls-4" d="m296,669c.09,18.64,3.03,24.84-2,30-.28.29-4.38,4.37-10,4-5.63-.37-9.2-4.97-10-6-3.5-4.52-3.39-9.16-2-28,1.46-19.82,1.93-22.79,5-25,4.73-3.41,12.81-2.98,17,1,3.96,3.76,1.92,8.3,2,24Z"/><path class="cls-3" d="m358.89,694.98c.21-6.8,15.07-14.83,27.55-12.07,18.57,4.1,27.5,31.13,22.41,36.16-2.45,2.42-9.05-.44-22.25-6.15-17.13-7.41-27.9-12.07-27.71-17.94Z"/><path class="cls-3" d="m296.8,697.59c.47-6.79-13.5-16.27-26.2-14.79-18.89,2.21-30.5,28.2-25.94,33.72,2.19,2.65,9.05.48,22.76-3.87,17.79-5.64,28.97-9.2,29.38-15.06Z"/><path class="cls-10" d="m240,255c-.85,5.09-2.62,7.8-4,11-6.35,14.71-.04,29.65-1.5,30-1.3.31-7.21-11.29-9.5-27-4.15-28.51,5.85-55.39,9.5-55,1.7.18.38,6.11,4.5,26,.93,4.49,2,9.02,1,15Z"/><path class="cls-10" d="m295,237c.42,18.65-2.71,41.01-5.5,41-2.79,0-5.49-22.27-5.5-41-.01-20.53,3.2-41.05,5.5-41,2.02.04,3.54,15.96,4.5,26,.38,3.98.86,9.06,1,15Z"/><path class="cls-10" d="m273.98,486c.23,5.91-1.47,13-2.99,13-1.51,0-2.98-7.06-2.99-13,0-6.51,1.74-13.01,2.99-13,1.1.01,1.93,5.06,2.45,8.24.21,1.26.47,2.87.54,4.76Z"/><path class="cls-10" d="m273.98,486c.23,5.91-1.47,13-2.99,13-1.51,0-2.98-7.06-2.99-13,0-6.51,1.74-13.01,2.99-13,1.1.01,1.93,5.06,2.45,8.24.21,1.26.47,2.87.54,4.76Z"/><path class="cls-10" d="m351.98,484c.23,5.91-1.47,13-2.99,13-1.51,0-2.98-7.06-2.99-13,0-6.51,1.74-13.01,2.99-13,1.1.01,1.93,5.06,2.45,8.24.21,1.26.47,2.87.54,4.76Z"/><path class="cls-10" d="m373.98,483c.23,5.91-1.47,13-2.99,13-1.51,0-2.98-7.06-2.99-13,0-6.51,1.74-13.01,2.99-13,1.1.01,1.93,5.06,2.45,8.24.21,1.26.47,2.87.54,4.76Z"/><path class="cls-10" d="m295.98,486c.23,5.91-1.47,13-2.99,13-1.51,0-2.98-7.06-2.99-13,0-6.51,1.74-13.01,2.99-13,1.1.01,1.93,5.06,2.45,8.24.21,1.26.47,2.87.54,4.76Z"/><path class="cls-10" d="m314.98,484.5c.23,5.23-1.47,11.5-2.99,11.5-1.51,0-2.98-6.25-2.99-11.5,0-5.76,1.74-11.51,2.99-11.5,1.1.01,1.93,4.48,2.45,7.29.21,1.12.47,2.54.54,4.21Z"/><path class="cls-10" d="m332.98,484.5c.23,5.23-1.47,11.5-2.99,11.5-1.51,0-2.98-6.25-2.99-11.5,0-5.76,1.74-11.51,2.99-11.5,1.1.01,1.93,4.48,2.45,7.29.21,1.12.47,2.54.54,4.21Z"/><path class="cls-10" d="m347,251c-1.55,16.73.28,26.92-.5,27-1.07.11-5.33-18.69-5.5-41-.14-19.33,2.79-41,5.5-41,2.14,0,4.66,13.55,4.5,26-.15,11.81-2.6,13.96-4,29Z"/><path class="cls-10" d="m395,248c-.19,18.43-9.07,35.66-12,35-3.24-.73-.74-23.7,1-35,3.88-25.24,11.96-44.29,13-44,.78.22-3.24,11.16-3,29,.12,8.48,1.06,8.9,1,15Z"/><path class="cls-10" d="m432,271c-14.76,13.01-19.41,20.96-21,20-2.02-1.21,2.77-15.6,11.66-28.55,10.03-14.61,25.53-27.76,29.06-25.18,2.84,2.08-1.48,14.78-8.72,23.73-3,3.71-4.42,4.2-11,10Z"/><path class="cls-5" d="m229.03,619.14c8.61,21.65,37.36,28.41,37.33,26.39-.02-2.01-28.49-18.31-30.45-31.02-.47-3.03.57-5.83-1.35-10.36-1.48-3.47-4.41-7.28-6.1-7.2-2.99.14-3.28,12.51.57,22.2Z"/><path class="cls-5" d="m477.97,519.9c-.32.71-2.93-.04-7.96,0-8.12.06-10.5,2.07-14.7.51-2.02-.75-4.53-2.34-4.29-3.82.27-1.69,4.04-2.49,5.51-2.8,6.28-1.33,11.81.67,14.09,1.53,3.49,1.31,7.78,3.63,7.35,4.58Z"/></svg>